HIERARCHY
ROOT Hips
{
	OFFSET 15.585500 22.159004 44.358299
	CHANNELS 6 Xposition Yposition Zposition Zrotation Xrotation Yrotation
	JOINT Chest
	{
		OFFSET -0.128500 0.160400 6.566002
		CHANNELS 6 Xposition Yposition Zposition Zrotation Xrotation Yrotation
		JOINT Chest2
		{
			OFFSET 0.000000 0.000000 3.554802
			CHANNELS 6 Xposition Yposition Zposition Zrotation Xrotation Yrotation
			JOINT Neck
			{
				OFFSET 0.000000 0.000000 8.267998
				CHANNELS 6 Xposition Yposition Zposition Zrotation Xrotation Yrotation
				JOINT Head
				{
					OFFSET 0.000000 0.000002 2.173897
					CHANNELS 6 Xposition Yposition Zposition Zrotation Xrotation Yrotation
					End Site
					{
						OFFSET 0.000000 0.000000 7.718697
					}
				}
			}
			JOINT LeftCollar
			{
				OFFSET 2.057500 0.117599 5.946301
				CHANNELS 6 Xposition Yposition Zposition Zrotation Xrotation Yrotation
				JOINT LeftShoulder
				{
					OFFSET 4.957699 0.000000 0.000000
					CHANNELS 6 Xposition Yposition Zposition Zrotation Xrotation Yrotation
					JOINT LeftElbow
					{
						OFFSET 0.000000 0.000000 -8.465500
						CHANNELS 6 Xposition Yposition Zposition Zrotation Xrotation Yrotation
						JOINT LeftWrist
						{
							OFFSET 0.000000 -0.000002 -14.594898
							CHANNELS 6 Xposition Yposition Zposition Zrotation Xrotation Yrotation
							End Site
							{
								OFFSET 0.000000 0.000000 -2.173901
							}
						}
					}
				}
			}
			JOINT RightCollar
			{
				OFFSET -3.048500 -0.728800 6.604099
				CHANNELS 6 Xposition Yposition Zposition Zrotation Xrotation Yrotation
				JOINT RightShoulder
				{
					OFFSET -3.710299 0.000000 0.000000
					CHANNELS 6 Xposition Yposition Zposition Zrotation Xrotation Yrotation
					JOINT RightElbow
					{
						OFFSET 0.000000 0.000000 -10.450901
						CHANNELS 6 Xposition Yposition Zposition Zrotation Xrotation Yrotation
						JOINT RightWrist
						{
							OFFSET 0.000000 0.000000 -12.539200
							CHANNELS 6 Xposition Yposition Zposition Zrotation Xrotation Yrotation
							End Site
							{
								OFFSET 0.000000 -0.000002 -2.173901
							}
						}
					}
				}
			}
		}
	}
	JOINT LeftHip
	{
		OFFSET 2.442599 -0.601400 -2.767502
		CHANNELS 6 Xposition Yposition Zposition Zrotation Xrotation Yrotation
		JOINT LeftKnee
		{
			OFFSET 0.000000 -0.000002 -17.033703
			CHANNELS 6 Xposition Yposition Zposition Zrotation Xrotation Yrotation
			JOINT LeftAnkle
			{
				OFFSET 0.000000 -0.000002 -19.318800
				CHANNELS 6 Xposition Yposition Zposition Zrotation Xrotation Yrotation
				End Site
				{
					OFFSET 0.000000 -8.281900 0.000000
				}
			}
		}
	}
	JOINT RightHip
	{
		OFFSET -3.126200 -0.601400 -2.283501
		CHANNELS 6 Xposition Yposition Zposition Zrotation Xrotation Yrotation
		JOINT RightKnee
		{
			OFFSET 0.000000 -0.000002 -16.919401
			CHANNELS 6 Xposition Yposition Zposition Zrotation Xrotation Yrotation
			JOINT RightAnkle
			{
				OFFSET 0.000000 -0.000002 -18.035900
				CHANNELS 6 Xposition Yposition Zposition Zrotation Xrotation Yrotation
				End Site
				{
					OFFSET 0.000000 -9.230099 0.000000
				}
			}
		}
	}
}
MOTION
Frames: 6
Frame Time: 0.041667
23.441399 38.944603 8.219391 6.352741 3.991329 -2.523725 -0.128498 0.160400 6.566009 -7.220789 18.767768 3.060880 -0.000000 0.000004 3.554805 2.326994 -8.223222 -0.363958 -0.000001 -0.000002 8.267991 4.187647 6.877864 2.646788 -0.000001 0.000006 2.173896 0.806149 -3.017102 -0.021485 2.057505 0.117600 5.946307 -26.322106 5.490375 7.250866 4.957702 -0.000002 0.000004 -38.231656 -18.503862 -51.076564 0.000000 -0.000003 -8.465498 -128.764215 -146.039061 -128.864769 0.000001 -0.000001 -14.594901 -100.023442 -25.367785 -89.482971 -3.048499 -0.728803 6.604100 29.973069 2.308903 -14.558772 -3.710301 -0.000002 0.000003 44.086491 -17.201268 49.775724 0.000005 0.000006 -10.450900 -133.943548 -70.159724 -136.633153 0.000006 -0.000002 -12.539190 562.580060 12.514915 -80.638053 2.442598 -0.601394 -2.767499 132.602700 1.535246 94.439605 -0.000002 -0.000003 -17.033701 -173.916629 45.601502 171.121319 -0.000001 0.000002 -19.318811 -136.538323 121.088134 391.279408 -3.126196 -0.601395 -2.283496 -136.615777 -20.931926 -101.189034 -0.000004 -0.000001 -16.919394 328.602559 -60.362828 -206.288952 0.000000 -0.000002 -18.035894 178.750531 53.458002 -182.815341
23.440599 39.028004 8.200294 6.352505 3.324655 -2.452932 -0.128501 0.160398 6.566002 -7.252542 19.093944 3.145594 -0.000003 -0.000001 3.554802 2.372167 -8.142000 -0.342749 0.000000 -0.000001 8.268003 4.260375 8.480867 2.421322 0.000001 0.000003 2.173897 0.776617 -2.490507 0.031051 2.057506 0.117598 5.946307 -26.361130 5.609714 7.403361 4.957701 0.000002 0.000000 -38.150250 -18.189986 -49.855518 0.000000 0.000011 -8.465503 -134.410254 -142.854650 -131.724556 0.000003 0.000001 -14.594895 -99.343223 -25.395444 -89.712404 -3.048501 -0.728802 6.604103 29.946524 2.396414 -14.880161 -3.710300 0.000001 0.000004 44.206781 -15.907540 49.996237 0.000004 0.000009 -10.450897 -134.686549 -69.853895 -139.206167 0.000013 0.000000 -12.539200 561.133809 12.869190 -80.956982 2.442593 -0.601404 -2.767505 132.456301 1.174828 94.084702 -0.000002 0.000001 -17.033712 -173.679771 45.694375 170.794344 -0.000005 0.000002 -19.318806 -136.416868 121.060786 391.369757 -3.126197 -0.601403 -2.283504 -136.370450 -21.290352 -100.688490 -0.000003 -0.000008 -16.919401 329.680254 -60.685343 -205.561004 0.000001 -0.000005 -18.035898 179.503450 53.454833 -183.059861
23.440100 39.109203 8.181801 6.348741 2.674869 -2.382974 -0.128500 0.160398 6.566009 -7.288591 19.378080 3.236766 0.000000 -0.000000 3.554804 2.418035 -8.115751 -0.327199 0.000001 -0.000002 8.267998 4.327323 10.081575 2.191064 0.000005 0.000002 2.173896 0.402076 -1.848476 0.668042 2.057504 0.117592 5.946310 -26.386645 5.757588 7.563205 4.957702 -0.000001 0.000001 -38.043437 -17.686602 -49.091274 0.000000 0.000004 -8.465498 -139.816554 -140.540254 -134.176566 0.000000 0.000002 -14.594901 -99.130961 -25.289540 -90.214238 -3.048498 -0.728802 6.604098 29.922929 2.508312 -15.216623 -3.710299 -0.000001 -0.000002 44.345700 -14.608407 50.390438 0.000004 0.000009 -10.450896 -135.089763 -69.632160 -141.431607 0.000014 0.000004 -12.539199 559.602863 13.413181 -81.171245 2.442594 -0.601403 -2.767502 132.318236 0.828137 93.741853 -0.000001 -0.000003 -17.033707 -173.449799 45.782331 170.470347 -0.000001 -0.000001 -19.318808 -136.300878 121.030173 391.463877 -3.126198 -0.601404 -2.283500 -136.125602 -21.650655 -100.198930 -0.000001 -0.000002 -16.919399 330.785816 -61.005638 -204.796228 0.000000 -0.000005 -18.035894 180.272174 53.450130 -183.314750
23.439798 39.187904 8.164097 6.340859 2.045031 -2.314606 -0.128503 0.160399 6.566001 -7.312207 19.618188 3.330155 0.000003 0.000000 3.554805 2.448979 -8.104865 -0.317173 0.000001 0.000008 8.267997 4.397488 11.633614 1.952630 0.000000 0.000004 2.173897 0.451396 -1.354717 0.596225 2.057506 0.117605 5.946302 -26.399945 5.899377 7.712849 4.957700 0.000008 -0.000002 -37.938573 -17.019762 -48.735145 -0.000002 0.000009 -8.465497 -145.412747 -138.424138 -136.610190 0.000001 0.000000 -14.594899 -98.682799 -24.923396 -90.764280 -3.048500 -0.728792 6.604102 29.901421 2.614808 -15.542369 -3.710299 0.000000 0.000008 44.506793 -13.310902 50.956585 0.000002 0.000004 -10.450907 -135.236994 -69.475407 -143.381968 0.000010 0.000001 -12.539193 558.234202 14.162332 -82.077509 2.442594 -0.601403 -2.767505 132.188544 0.491447 93.412426 -0.000003 0.000005 -17.033707 -173.218952 45.865898 170.147498 -0.000003 0.000002 -19.318802 -136.190352 120.996747 391.561932 -3.126200 -0.601400 -2.283501 -135.882147 -22.009509 -99.721848 -0.000004 -0.000005 -16.919394 331.939817 -61.325161 -203.978805 0.000000 -0.000003 -18.035896 181.067919 53.443044 -183.580718
23.439598 39.264000 8.147301 6.329051 1.437058 -2.247609 -0.128501 0.160396 6.566009 -7.329263 19.812890 3.423109 -0.000001 0.000004 3.554802 2.470998 -8.109611 -0.312278 0.000001 0.000001 8.267997 4.477591 13.132235 1.704401 0.000001 0.000005 2.173895 0.490610 -0.870434 0.529611 2.057508 0.117602 5.946301 -26.405732 6.035017 7.859081 4.957702 0.000005 0.000002 -37.855009 -16.214847 -48.744543 -0.000001 0.000006 -8.465494 -150.749788 -136.582555 -138.702987 0.000002 -0.000001 -14.594901 -99.053329 -25.783759 -90.372432 -3.048498 -0.728797 6.604096 29.881924 2.725048 -15.849597 -3.710297 0.000007 -0.000000 44.693534 -12.019760 51.696599 0.000003 0.000013 -10.450906 -135.200630 -69.363638 -145.118106 0.000008 0.000001 -12.539200 556.589821 14.999179 -81.112376 2.442594 -0.601397 -2.767500 132.066420 0.158657 93.096783 0.000000 -0.000004 -17.033707 -172.981808 45.946368 169.826889 -0.000001 0.000001 -19.318804 -136.085768 120.960970 391.662909 -3.126201 -0.601407 -2.283498 -135.641546 -22.362963 -99.257149 -0.000005 -0.000003 -16.919395 333.155673 -61.643222 -203.099035 -0.000002 -0.000001 -18.035896 181.895806 53.432730 -183.857204
23.439600 39.337006 8.131596 6.312194 0.854111 -2.182964 -0.128498 0.160401 6.566009 -7.337827 19.959169 3.512467 0.000003 0.000007 3.554807 2.484603 -8.129829 -0.313127 -0.000003 0.000001 8.267996 4.571528 14.573959 1.446389 -0.000003 -0.000002 2.173900 0.513380 -0.397197 0.472567 2.057503 0.117606 5.946305 -26.409133 6.165725 8.010537 4.957699 -0.000001 0.000001 -37.804728 -15.295561 -49.084260 0.000004 0.000002 -8.465498 -157.156519 -134.451891 -141.455922 0.000003 0.000004 -14.594897 -98.081967 -25.769885 -90.992395 -3.048503 -0.728800 6.604100 29.863967 2.849277 -16.132757 -3.710294 0.000000 0.000002 44.907968 -10.736209 52.615761 0.000000 0.000012 -10.450906 -135.046596 -69.276491 -146.694678 0.000005 -0.000005 -12.539202 555.039094 16.002944 -80.751004 2.442596 -0.601400 -2.767501 131.951987 -0.174316 92.795537 -0.000001 0.000001 -17.033705 -172.734446 46.025264 169.510679 -0.000005 -0.000001 -19.318800 -135.989217 120.923568 391.766537 -3.126195 -0.601403 -2.283499 -135.404361 -22.706740 -98.806999 -0.000002 -0.000003 -16.919392 334.438710 -61.957015 -202.153778 -0.000000 -0.000006 -18.035894 182.754197 53.418800 -184.141927
